<svg width="185" height="48" viewBox="0 0 185 48" fill="none" xmlns="http://www.w3.org/2000/svg">
<path d="M173.476 27.4584C173.62 27.2884 173.909 27.0333 174.125 26.7782C175.351 25.5029 176.721 24.6527 178.379 24.5676C179.965 24.4826 180.614 25.2478 180.398 27.1183C180.326 27.7985 180.182 28.5637 180.182 29.2439C180.182 30.5192 180.758 30.9443 181.696 30.2642C182.561 29.584 183.282 28.6487 184.147 27.7985C184.291 27.6285 184.436 27.3734 184.868 27.2884C184.868 27.5434 184.868 27.8835 184.796 28.0536C183.859 30.0091 182.489 31.4545 180.542 31.8796C178.812 32.3047 177.514 30.7743 177.802 28.6487C177.946 27.7135 178.019 26.7782 178.163 25.843C178.019 25.758 177.946 25.6729 177.802 25.5879C177.298 26.013 176.721 26.3531 176.288 26.8632C175.495 27.9685 174.774 29.1589 174.053 30.2642C173.765 30.6893 173.62 31.3695 173.26 31.6245C172.827 31.9646 172.25 32.0497 171.746 31.9646C171.529 31.9646 171.313 31.1994 171.241 30.7743C171.169 30.2642 171.169 29.669 171.169 29.0738C170.015 29.669 168.934 30.2642 167.78 30.7743C165.545 31.7946 163.238 32.4748 160.858 32.3047C159.272 32.2197 157.902 31.6245 156.965 30.1791C155.595 30.9443 154.369 31.8796 152.999 32.3897C150.476 33.325 148.241 32.1347 146.222 30.6043C145.573 30.0941 145.068 30.0941 144.347 30.5192C142.04 31.7946 139.733 32.8999 137.065 32.6448C136.055 32.5598 135.19 32.3047 134.613 31.3695C133.748 32.0497 132.883 32.6448 132.018 33.24C131.657 33.495 131.297 33.5801 130.864 33.6651C128.701 34.0902 127.98 33.24 128.413 30.6893C128.485 30.1791 128.557 29.669 128.701 29.0738C127.764 28.9038 126.971 28.8188 126.322 29.754C124.736 31.7946 122.717 32.3898 120.409 32.1347C119.328 32.0497 118.535 31.4545 118.318 30.0091C117.237 31.3695 116.155 32.6448 114.641 32.7298C113.56 32.8148 112.478 32.7298 111.469 32.3897C110.459 32.0497 110.171 31.1144 110.532 29.9241C111.253 27.5434 112.911 26.6082 114.786 26.013C115.723 25.7579 116.732 25.843 117.67 25.928C118.318 26.013 118.895 26.1831 119.616 25.758C119.977 25.5029 120.626 25.6729 121.058 25.928C121.275 26.013 121.203 26.8632 121.13 27.2884C121.058 27.7135 120.914 28.2236 120.842 28.6487C120.626 30.1791 121.419 31.2845 122.717 30.8593C123.87 30.5192 124.88 29.754 126.105 29.0738C125.168 28.2236 125.096 27.3734 125.529 26.5232C125.889 25.6729 126.61 25.6729 127.331 25.758C128.124 25.843 128.269 26.1831 127.836 27.0333C127.692 27.2884 127.547 27.5434 127.331 27.9686C127.62 28.0536 127.764 28.1386 127.98 28.1386C128.196 28.1386 128.485 28.0536 128.701 27.9686C130.648 27.6285 131.008 28.1386 130.648 30.4342C130.576 31.1144 130.648 31.7946 130.648 32.4748C131.225 32.3047 131.874 32.2197 132.306 31.8796C133.244 31.1994 134.037 30.2642 134.541 28.9888C135.262 27.1183 136.704 26.2681 138.363 26.098C139.444 25.928 140.526 26.098 141.607 26.098C140.886 24.5676 140.021 23.0372 139.372 21.4218C138.507 19.2962 138.146 17.0006 138.363 14.6199C138.867 8.83835 142.905 6.20263 146.438 5.60747C148.096 5.3524 149.683 5.43744 151.269 6.28767C154.153 7.73306 155.595 11.134 155.307 15.3001C155.018 18.701 153.792 21.5068 151.846 23.8874C150.548 25.4178 149.106 26.7782 147.664 28.2236C147.448 28.4787 147.159 28.7338 146.799 29.0738C148.385 30.6893 149.971 32.1347 152.134 31.4545C153.504 31.0294 154.73 30.1791 156.028 29.499C156.244 29.4139 156.532 29.0739 156.604 28.8188C157.325 26.3531 159.056 25.5879 160.931 25.1628C162.084 24.9077 163.238 25.0778 164.391 25.0778C164.608 25.0778 164.896 25.1628 165.112 25.3328C165.329 25.5029 165.617 25.843 165.689 26.098C165.689 26.2681 165.401 26.6932 165.184 26.7782C164.103 27.1183 163.021 27.4584 161.868 27.7135C161.363 27.7985 160.786 27.7135 160.282 27.8835C159.921 27.9686 159.272 28.3086 159.272 28.6487C159.2 29.1589 159.344 30.0091 159.633 30.2642C160.21 30.7743 161.075 31.2844 161.724 31.1994C163.526 30.9444 165.329 30.4342 167.131 29.9241C168.141 29.584 169.078 28.9888 170.087 28.6487C170.953 28.3937 171.097 27.8835 170.953 26.9483C170.808 25.6729 171.529 24.9077 172.467 25.5029C172.971 25.843 173.116 26.6932 173.476 27.4584ZM152.999 14.1098C152.999 13.5996 152.999 13.1745 152.999 12.6644C152.711 9.43353 151.413 7.39296 149.178 6.88282C145.068 5.94756 140.309 9.51853 140.526 15.3851C140.742 20.0614 142.617 23.8024 145.14 27.2033C145.501 27.7135 145.861 27.7135 146.294 27.2884C147.087 26.5231 147.952 25.758 148.673 24.9077C151.413 22.0169 152.927 18.446 152.999 14.1098ZM143.266 29.8391C143.266 29.669 143.266 29.499 143.266 29.3289C142.473 28.7337 141.752 28.1386 140.958 27.6284C139.228 26.6082 137.353 27.5434 136.632 29.584C136.128 31.1144 136.776 32.2197 138.074 31.7946C139.805 31.2845 141.535 30.5192 143.266 29.8391ZM118.174 27.7985C115.867 26.6932 113.776 28.2236 113.199 30.0941C113.055 30.5192 113.055 31.3695 113.199 31.5395C113.488 31.7946 114.137 31.7946 114.569 31.6245C116.083 30.8593 117.165 29.499 118.174 27.7985ZM163.166 26.5232C163.166 26.3531 163.094 26.1831 163.094 25.928C162.373 26.1831 161.579 26.3531 160.858 26.6082C160.858 26.7782 160.931 26.8633 160.931 27.0333C161.652 26.8633 162.445 26.6932 163.166 26.5232Z" fill="#2C2C2C"/>
<path d="M105.412 24.7379C104.691 24.6529 104.331 24.5679 103.97 24.5679C100.798 24.7379 97.6254 24.908 94.453 24.993C94.0204 24.993 93.5877 24.6529 93.083 24.4828C93.5156 24.3128 93.9483 23.8877 94.3809 23.8877C98.3465 23.5476 102.384 23.2075 106.35 22.8674C106.71 22.8674 107.143 22.8674 107.575 22.9524C108.729 23.1225 109.306 23.8877 109.234 25.248C108.873 30.5195 109.738 35.6209 110.748 40.6372C110.964 41.5725 110.604 41.9126 110.027 41.7425C109.522 41.5725 108.873 41.1474 108.657 40.5522C107.575 38.5116 107.143 36.131 106.927 33.7504C106.854 32.56 106.638 31.4547 106.494 30.0093C106.206 30.5195 106.061 30.8596 105.917 31.1146C103.682 36.216 100.942 40.8923 97.0486 44.4633C95.1019 46.2487 92.8667 47.269 90.4153 47.5241C87.1707 47.8642 84.575 46.3338 82.6283 43.2729C80.249 39.617 79.3116 35.2808 79.1674 30.7745C78.9511 23.0374 80.7537 16.1506 85.224 10.369C88.6127 6.03282 92.9388 3.56715 97.8417 2.6319C100.654 2.03673 103.466 2.03675 106.206 3.3121C108.152 4.24735 109.45 6.03283 110.243 8.32845C110.387 8.83859 110.82 9.51877 110.099 9.94389C109.378 10.369 108.801 10.1139 108.296 9.43374C108.152 9.17867 108.008 8.83858 107.936 8.58351C106.854 5.26761 104.619 3.31207 101.591 3.3971C97.6254 3.48212 94.0924 5.35263 90.9921 8.1584C85.6566 13.0047 83.0609 19.6365 82.2678 27.3736C81.9073 31.0296 81.9794 34.6856 83.0609 38.0865C83.5656 39.872 84.3587 41.6575 85.3682 43.1029C87.6754 46.5038 91.0642 47.099 94.2367 44.8034C97.4812 42.4227 100.077 39.2769 101.735 35.1107C102.889 31.7098 104.042 28.3089 105.412 24.7379Z" fill="#2C2C2C"/>
<path d="M41.8186 31.6247C41.2418 31.8798 40.665 32.3049 39.944 32.56C37.9972 33.2402 36.6994 31.7948 37.132 29.4141C37.2762 28.5639 37.4204 27.7136 37.4925 26.8634C37.4204 26.7784 37.3483 26.6934 37.2762 26.6934C36.9157 26.9485 36.4831 27.0335 36.2668 27.3736C35.2574 28.7339 34.248 30.1793 33.2385 31.6247C33.0222 31.9648 32.7338 32.3899 32.4454 32.645C31.6523 33.1551 30.9313 32.645 30.9313 31.5397C30.9313 31.1996 30.9313 30.9445 30.9313 30.7745C29.7056 31.2846 28.5519 31.9648 27.3983 32.3049C26.1726 32.645 24.9469 31.9648 24.5142 30.9445C24.1537 30.0943 24.37 27.5436 25.019 26.9484C25.3795 26.6083 25.9563 26.5233 26.3889 26.5233C26.6052 26.5233 26.7494 27.3736 26.7494 27.7987C26.7494 28.3938 26.6052 28.989 26.6052 29.6692C26.5331 30.7745 27.1099 31.5397 27.903 31.1996C28.9124 30.7745 29.8498 30.0943 30.7871 29.3291C31.0034 29.159 31.0034 28.3938 31.0034 27.8837C31.0034 27.1185 31.0034 26.3533 31.9407 26.2683C32.9501 26.2683 33.0222 26.9484 33.0222 27.8837C33.0222 27.9687 33.0222 28.0538 33.0943 28.3938C33.5269 28.0538 33.8875 27.7137 34.248 27.4586C35.4016 26.4383 36.6273 25.6731 38.1414 25.6731C39.5114 25.7581 40.0161 26.4383 39.7277 28.0537C39.6556 28.7339 39.4393 29.3291 39.4393 30.0093C39.4393 30.4344 39.5835 31.1146 39.7998 31.2846C40.0161 31.4547 40.5929 31.2846 40.8813 31.1146C41.3139 30.8595 41.7465 30.4344 42.107 29.9242C44.2701 26.8634 47.731 25.6731 51.0476 26.9484C51.4802 27.1185 51.9849 26.9484 52.4897 26.8634C53.2107 26.8634 53.4991 27.2035 53.427 28.0537C53.3549 28.6489 53.2828 29.2441 53.2107 30.2643C55.0853 29.6692 56.7436 29.074 58.402 28.5639C58.402 28.7339 58.4741 28.8189 58.4741 28.989C57.8252 29.3291 57.1763 29.6692 56.5274 30.0093C56.311 30.0943 56.1668 30.1793 55.9505 30.2643C54.0038 30.9445 52.2734 31.9648 52.2013 34.8556C49.8219 41.7424 45.3516 45.3134 39.223 46.3337C38.502 46.4187 37.7088 46.2487 36.9157 46.0786C35.2574 45.5685 34.4643 43.698 35.4737 42.0825C36.2668 40.7222 37.3483 39.4468 38.502 38.4266C41.3139 35.9609 44.5585 34.4305 47.731 32.9001C48.3799 32.56 49.0288 32.3049 49.6777 31.9648C50.4708 31.6247 50.9755 30.9445 50.7592 29.8392C47.8031 31.4547 45.1353 33.4952 41.8186 31.6247ZM49.9661 33.2401C49.894 33.1551 49.7498 33.0701 49.6777 32.9851C47.2983 34.3455 44.7748 35.5358 42.5396 37.1512C40.8813 38.2565 39.3672 39.7869 37.9251 41.2323C36.9157 42.2526 36.7715 43.613 37.2762 44.4632C37.9251 45.5685 38.9346 45.3984 39.7998 45.0583C44.2701 43.4429 47.3704 39.957 49.3893 35.1107C49.6056 34.5155 49.7498 33.8353 49.9661 33.2401ZM50.3266 27.9687C48.5241 26.7784 45.4958 27.8837 44.7027 29.7542C44.3422 30.5194 44.6306 31.1146 45.4237 30.9445C47.2983 30.6044 48.8846 29.4991 50.3266 27.9687Z" fill="#2C2C2C"/>
<path d="M18.2414 3.65212C12.0407 5.01249 6.12835 6.37284 0.0718171 7.64819C-0.144488 7.05303 0.143914 6.71295 0.720727 6.62792C5.91204 5.52262 11.1034 4.3323 16.3668 3.227C16.7994 3.14198 17.232 3.14196 17.6646 2.97192C17.953 2.88689 18.2414 2.63184 18.3856 2.37677C18.8182 1.52654 19.6113 1.44151 20.2603 2.20671C20.4045 2.46178 20.8371 2.54682 21.1255 2.4618C24.7306 2.03668 28.3356 1.44152 31.9407 1.10142C38.2135 0.42124 44.4864 -0.343973 50.8313 0.166165C51.7686 0.251188 52.706 0.421245 53.6433 0.761337C54.5806 1.10143 54.7969 1.95164 54.0038 2.63183C52.8502 3.65211 51.6244 4.58737 50.3266 5.26755C47.0099 7.05304 43.4049 7.56318 39.7998 7.9883C39.5114 7.9883 39.1509 7.90327 38.8625 7.90327C38.8625 7.73323 38.8625 7.6482 38.8625 7.47816C39.4393 7.30811 40.0882 7.13807 40.665 7.13807C44.2701 6.79798 47.5867 5.60765 50.6871 3.31203C51.1918 2.97194 51.5523 2.29173 51.9849 1.69657C51.4081 1.4415 50.8313 0.931368 50.2545 0.931368C46.5052 0.931368 42.7559 0.84636 39.0067 1.18645C33.0222 1.69659 27.1099 2.54682 21.1976 3.227C20.4766 3.31202 20.2603 3.65212 20.2603 4.50235C19.7555 13.3447 19.2508 22.1021 18.7461 30.9445C18.5298 35.1107 18.2414 39.1917 17.8809 43.3579C17.8809 43.783 17.5925 44.3782 17.3041 44.5482C16.5831 44.9733 15.9342 44.4632 16.0063 43.5279C16.1505 40.042 16.2947 36.6411 16.511 33.2401C16.9436 25.9282 17.4483 18.6162 17.8809 11.3042C17.8809 8.92355 18.0251 6.45788 18.2414 3.65212Z" fill="#2C2C2C"/>
<path d="M66.6935 30.2643C66.1167 29.6691 65.4678 29.159 64.9631 28.5638C64.0979 27.6286 64.3142 26.6083 65.3957 26.1832C66.5493 25.7581 67.7029 25.6731 68.7845 26.4383C68.7845 26.6083 68.7845 26.6933 68.7845 26.8634C68.3519 26.8634 67.9192 26.7783 67.4866 26.7783C67.1982 26.7783 66.8377 26.8634 66.5493 26.9484C66.6214 27.2885 66.6935 27.7986 66.8377 28.0537C67.775 29.4141 68.7845 30.0942 70.2986 29.329C71.1638 28.8189 72.1732 28.6489 73.0385 28.3088C73.1106 28.3938 73.1106 28.5638 73.1827 28.6489C71.9569 29.244 70.6591 29.8392 69.4334 30.4344C69.4334 30.5194 69.3613 30.6044 69.3613 30.6894C69.866 32.815 69.3613 33.7503 67.4866 33.8353C66.7656 33.9203 65.9725 33.6652 65.2515 33.4102C64.3863 33.0701 64.2421 32.2198 64.9631 31.5396C65.5399 31.0295 66.1167 30.6894 66.6935 30.2643ZM67.7029 31.5396C67.5587 31.4546 67.3424 31.2846 67.1982 31.1996C66.9098 31.6247 66.6935 32.0498 66.4051 32.5599C66.6214 32.73 66.9098 32.815 67.1261 32.985C67.3424 32.5599 67.5587 32.0498 67.7029 31.5396Z" fill="#2C2C2C"/>
<path d="M61.7188 18.8714C62.3677 18.8714 63.0166 18.6164 63.2329 18.8714C63.5213 19.1265 63.6655 19.9767 63.5934 20.4869C63.3771 21.167 62.9445 21.7622 62.0793 21.5071C62.2235 21.082 62.4398 20.7419 62.4398 20.3168C62.3677 19.9767 62.0793 19.6366 61.7188 18.8714Z" fill="#2C2C2C"/>
<path d="M27.6149 23.4625C27.2544 23.8026 26.8939 24.1427 26.5334 24.3977C26.3171 24.4828 26.0286 24.3127 25.7402 24.2277C25.8844 23.8876 25.8844 23.3775 26.1007 23.2924C26.5334 23.1224 27.0381 23.1224 27.4707 23.0374C27.5428 23.2074 27.6149 23.2924 27.6149 23.4625Z" fill="#2C2C2C"/>
</svg>
